/* XPM */
static char *e5ef2c789f074f0a80523d75f1ba0955O2EBY5QUXgKTvkOS[] = {
/* columns rows colors chars-per-pixel */
"32 32 241 2 ",
"   c #223B14",
".  c #3A1C26",
"X  c #372C2F",
"o  c #1F2D16",
"O  c #4B1316",
"+  c #5A252E",
"@  c #573439",
"#  c #4D2E36",
"$  c #6B3331",
"%  c #4D321F",
"&  c #3A4D33",
"*  c #554619",
"=  c #57492D",
"-  c #594D31",
";  c #525636",
":  c #654629",
">  c #78452C",
",  c #68532B",
"<  c #64533C",
"1  c #734931",
"2  c #556935",
"3  c #487238",
"4  c #4C6B32",
"5  c #6A6534",
"6  c #75693C",
"7  c #676932",
"8  c #3F3646",
"9  c #2C3F4D",
"0  c #453644",
"q  c #763A41",
"w  c #366D7C",
"e  c #3A6A44",
"r  c #4F4C4F",
"t  c #61494B",
"y  c #6F5247",
"u  c #4A7644",
"i  c #547B44",
"p  c #557C4F",
"a  c #4E734F",
"s  c #756859",
"d  c #6A6351",
"f  c #545B66",
"g  c #4D5C69",
"h  c #586A77",
"j  c #4C707B",
"k  c #4F7075",
"l  c #6A6966",
"z  c #686A77",
"x  c #797678",
"c  c #6A6B71",
"v  c #873A30",
"b  c #89563D",
"n  c #99503D",
"m  c #B0583B",
"M  c #95653A",
"N  c #95703B",
"B  c #C94B3E",
"V  c #9D4E4B",
"C  c #9A4644",
"Z  c #8A544A",
"A  c #9A534B",
"S  c #975347",
"D  c #944C51",
"F  c #8C5557",
"G  c #975255",
"H  c #A94847",
"J  c #BD4C44",
"K  c #B54B4C",
"L  c #BB4D4D",
"P  c #B34746",
"I  c #A65547",
"U  c #BB534C",
"Y  c #B65347",
"T  c #BB4C52",
"R  c #B34F51",
"E  c #A75351",
"W  c #BC5453",
"Q  c #BB5954",
"!  c #B95657",
"~  c #AD4F50",
"^  c #976947",
"/  c #857749",
"(  c #8C744D",
")  c #A66646",
"_  c #A27442",
"`  c #8F5967",
"'  c #B65E64",
"]  c #97777A",
"[  c #8E6969",
"{  c #B76668",
"}  c #AC6C6C",
"|  c #C54B42",
" . c #CB4C45",
".. c #CC4C4C",
"X. c #C74949",
"o. c #D54D4D",
"O. c #DB4B4C",
"+. c #D74946",
"@. c #C3544C",
"#. c #CB534B",
"$. c #C8574A",
"%. c #D2504B",
"&. c #CD4E53",
"*. c #D84A53",
"=. c #C45553",
"-. c #CA5855",
";. c #D65557",
":. c #339D2C",
">. c #35A62C",
",. c #3CAD39",
"<. c #38AA36",
"1. c #3FB439",
"2. c #558B3C",
"3. c #44AC34",
"4. c #4AAB36",
"5. c #44AC3B",
"6. c #4CAB3B",
"7. c #4AA337",
"8. c #54A83D",
"9. c #45B339",
"0. c #4CB43C",
"q. c #53B13B",
"w. c #38825D",
"e. c #3FA944",
"r. c #47885A",
"t. c #5D9C5D",
"y. c #5A9A56",
"u. c #558F4E",
"i. c #648944",
"p. c #799748",
"a. c #648953",
"s. c #699A55",
"d. c #7B9A56",
"f. c #748C4B",
"g. c #46AD45",
"h. c #54AE4A",
"j. c #5CAD4C",
"k. c #55AC44",
"l. c #4AB443",
"z. c #4EBA43",
"x. c #47B446",
"c. c #53B444",
"v. c #5AB445",
"b. c #52BB46",
"n. c #55B44A",
"m. c #5CB54A",
"M. c #5ABB4A",
"N. c #58BC48",
"B. c #59A857",
"V. c #5DB453",
"C. c #56BD52",
"Z. c #5BBB55",
"A. c #66AB4C",
"S. c #74A64C",
"D. c #62B24D",
"F. c #63B94E",
"G. c #69A955",
"H. c #77A757",
"J. c #66B957",
"K. c #77B855",
"L. c #468764",
"P. c #47936B",
"I. c #789764",
"U. c #768D77",
"Y. c #58AB67",
"T. c #5FB26C",
"R. c #69AB64",
"E. c #67B068",
"W. c #74B767",
"Q. c #74A961",
"!. c #4AC24B",
"~. c #5CC54C",
"^. c #5DCA5C",
"/. c #59C454",
"(. c #58D25C",
"). c #4DC653",
"_. c #63C84F",
"`. c #66C656",
"'. c #6AD156",
"]. c #5EC664",
"[. c #65C561",
"{. c #6FCC63",
"}. c #859957",
"|. c #8F874D",
" X c #8CA45D",
".X c #859765",
"XX c #958971",
"oX c #A8827D",
"OX c #B4857D",
"+X c #83A964",
"@X c #82B66C",
"#X c #3B7088",
"$X c #497888",
"%X c #56778B",
"&X c #467994",
"*X c #4E718F",
"=X c #647886",
"-X c #687FA1",
";X c #877B8F",
":X c #488688",
">X c #4C8699",
",X c #59899B",
"<X c #5B8988",
"1X c #648697",
"2X c #729094",
"3X c #73AD9C",
"4X c #4E86A2",
"5X c #588BA2",
"6X c #5799A9",
"7X c #689AA6",
"8X c #7E9EAC",
"9X c #689CB2",
"0X c #6989A2",
"qX c #79A8AB",
"wX c #69A5B8",
"eX c #76A7B8",
"rX c #7DB5BA",
"tX c #6BA6AC",
"yX c #74C0B6",
"uX c #79B3C7",
"iX c #919092",
"pX c #AA8783",
"aX c #BC8982",
"sX c #9395AC",
"dX c #83ACB4",
"fX c #92AFB4",
"gX c #B0ACB3",
"hX c #AE9AA5",
"jX c #C9908B",
"kX c #D7AFB5",
"lX c #F8B3B3",
"zX c #8CACC0",
"xX c #86BBD2",
"cX c #9FA4C4",
"vX c #BDBFD6",
"bX c #C3ABC5",
"nX c #87C4CB",
"mX c #94C8D1",
"MX c #8BCCD0",
"NX c #F5D0D3",
"BX c #DACBD0",
/* pixels */
"8.7.v.4.3.9.9.3.4.0.3.>.,.l.6.8.8.k.3.<.9.1.>.>.9.9.3.3.4.3.6.v.",
"m.8.`.M.z.9.z.~.~._.M.c.F.K.K.S.p.H.S.D.`.~.z.0._.~.b.0.c.c.v.m.",
"`.7.q.N.~.z.b.~.c.m.D.A.S.}.|.N M _ |.f.S.A.m.n.n.n.c.c.M.F.M.8.",
"{.4.6.0.M.b.c.k.D.A.H.}.|.^ ) m B J m M / p.H.H.A.j.V.Z.Z.J.F.v.",
"_.q.M.N.n.m.D.H.H.}.|.( ) Y #.O.O.o.#.Y I ) |.|.+XG.J.Z.n.c.m.m.",
"N.4.M.m.D.G.H.}.|./ M I Y X.*.O.O.O.O. .J Y I b ( f.s.G.V.h.c.c.",
"_.5.M.D.G.i.6 6 ^ I I U -.;.*.*.*.o.o.&...-.=.H A ^ / f.Q.E./.).",
"^.l.`.W.s.2 , b I Y Y @.-.&.X...o. . ...X.-.;.T W I > , i.G.Z.).",
"!.,.V.G.d.* b V Y Y U =.-.-.&...O.%.#.#.J @.=.L T R A : 2 H.V.g.",
"(.g.h.s.}.: S H Q W U U J X.X. .+.B  .#.| @.=.L P H C $ 5 +XJ.V.",
"(.x.Z.G..X- Z V Q W @.@.@.#.&.o.O.+.O.%. .$.-.K ! ~ A 1 5 d.G.j.",
"!.x.[.W..X= Z E R W @.$.#.#...o.O.+.+. .B $.=.K ! ~ V > 6 d.G.j.",
"z.5.[.W.I.= Z E R L X.| | | | | O.+.+.| m U Q K T P H > 6 d.J.C.",
"~.3.n.G.I.- F E ! @.J | #.#.$.#.;.;.;.-.@.@.Q P =.L H > 5 d.V.x.",
"'.4.j.s..X: A E ! U J @.$.$.$.J P P U -.-.-.-.P T R V > 5 H.J.l.",
"~.0.J.H..X: S H U U U Q Q I v $ O O $ C ~ ! =.K K K S $ 7 H.J.c.",
"/.:.m.K.d.* n H U L ' ' q . X r 2Xz r . + D ' ! T P n > 7 H.k.C.",
"^.l._.A.p.* b I { V $ + 8 g %X$XeX7X1Xh r . + D ' ' E > 5 +XD.[.",
"(.b.'.K. X, S G + # r f h 1X1X,XzX9X,X,X%Xh r # + q A b 6 +Xj.n.",
"!.,.v.A.}.* @ @ 0 r =XdXdX7X&Xw xX5X#X>XuXmX8Xz 0 0 @ % ; +XJ.l.",
"(.,.4.8.s.  X 9 j $Xw :XtXnXwX&XwX>X,XuXuX>Xw w =Xg & o & @X{.M.",
"{.l.N.m.R.e <XeX9X6X:X:X7XdXtX7XeX7XtXeX9X>X4XwX9X7X2Xa u R.D.v.",
"Z.4.M.m.E.L.rXxXuXeXdXfXgXiX2XfX8XzXzXeXeXnXuXuXwXuXmX3Xr.B.k.~.",
"V.k.'.F.E.w.7X4X&X%Xh f s s l c g h h h k j $X&X#X&X7X<Xr.E.M._.",
"J.h.c.h.T.P.MX4X&X0Xf @ @ $ y t 8 =XiXiXgXhX;XsX-X*XeXqXa R.D.q.",
"Z.g.n.V.T.P.MX4X9XfXx [ } } E y c sXgX] F ` ` bXcX*XeXrXL.E.J.8.",
"].g.C.Z.Y.P.nX,X9XfXx ] jX{ ' F z fXBXpXD D ` kXvX%XrXyXw.Y.V.8.",
"].e./.Z.B.r.dX<X2XfXx pXjX} { [ c fXNXNXlXlXlXNXgX=XdX3Xw.Y.h.m.",
"^.<./.J.B.u.U.l x iXs pXkXOX[ y t [ oXOXjXjXaXoX] l iXU.a.R.V.`.",
"^.g./.`.G.i i ; ; d - s XX/ d y d d < < : = < = y < d 2 a.R.V.C.",
"^.5.b.c.D.2.4 4 3 3 3 u i i a.s.p u u i 3 3 i i 2 2 4 4 u.h./.,.",
"x.:.>.>.k.u.2.s.Q.y.B.B.y.t.y.s.t.u.t.R.t.t.y.y.s.i.i.2.8.5.^.<."
};
