/* XPM */
static char *_141fa35e6224ebfa7f56d74a43f6340GVolJUu5XaMSKDZ4[] = {
/* columns rows colors chars-per-pixel */
"32 32 241 2 ",
"   c #21391F",
".  c #0E3038",
"X  c #343E3C",
"o  c #273738",
"O  c #453D29",
"+  c #244319",
"@  c #354D32",
"#  c #5C7938",
"$  c #577332",
"%  c #7B6239",
"&  c #62772C",
"*  c #253947",
"=  c #343D48",
"-  c #293C5A",
";  c #0B3F4D",
":  c #3E5C45",
">  c #2B4C57",
",  c #3B4F54",
"<  c #3B7849",
"1  c #36695A",
"2  c #37785B",
"3  c #306F51",
"4  c #31556C",
"5  c #286963",
"6  c #336B63",
"7  c #397664",
"8  c #336A74",
"9  c #376977",
"0  c #38727E",
"q  c #154A5A",
"w  c #444D4B",
"e  c #57584D",
"r  c #645C4A",
"t  c #497D48",
"y  c #436554",
"u  c #4F7554",
"i  c #7D664A",
"p  c #6E6B50",
"a  c #466D64",
"s  c #597767",
"d  c #597677",
"f  c #4F6D6F",
"g  c #787466",
"h  c #69797A",
"j  c #6E736B",
"k  c #835C33",
"l  c #88663C",
"z  c #896836",
"x  c #896C46",
"c  c #8E754C",
"v  c #977B49",
"b  c #857657",
"n  c #9A7A55",
"m  c #916E46",
"M  c #867B63",
"N  c #8E7F6D",
"B  c #329C1D",
"V  c #3B9D29",
"C  c #3BA536",
"Z  c #409E2E",
"A  c #44A92B",
"S  c #45AA3B",
"D  c #4CAB3A",
"F  c #47A836",
"G  c #51AC37",
"H  c #4CB33B",
"J  c #48B237",
"K  c #54B53C",
"L  c #52B939",
"P  c #49B02D",
"I  c #6C8D3E",
"U  c #59C33B",
"Y  c #3CA843",
"T  c #3F8676",
"R  c #378D50",
"E  c #4D9B4C",
"W  c #4B8455",
"Q  c #499452",
"!  c #599759",
"~  c #518B50",
"^  c #6A8847",
"/  c #669546",
"(  c #649656",
")  c #4CAD43",
"_  c #4BAE4B",
"`  c #51AE44",
"'  c #52AC4B",
"]  c #58A94A",
"[  c #48B445",
"{  c #54B343",
"}  c #5AB445",
"|  c #53BA43",
" . c #5BBA43",
".. c #55B349",
"X. c #5AB44C",
"o. c #5CBB4C",
"O. c #54B94D",
"+. c #54AD59",
"@. c #5BAD59",
"#. c #5DB554",
"$. c #5CBB53",
"%. c #5EB45B",
"&. c #58B956",
"*. c #4DBF50",
"=. c #6DA54E",
"-. c #64BC4B",
";. c #69A857",
":. c #73AA55",
">. c #62BC55",
",. c #64BC5B",
"<. c #66B85C",
"1. c #76B052",
"2. c #4C9661",
"3. c #599D62",
"4. c #4C9A78",
"5. c #4A8E6D",
"6. c #79896C",
"7. c #7D8378",
"8. c #5BAB69",
"9. c #59B567",
"0. c #5BAB72",
"q. c #57A679",
"w. c #58B574",
"e. c #49B36B",
"r. c #64AA69",
"t. c #64B768",
"y. c #64A578",
"u. c #67B375",
"i. c #72B16D",
"p. c #5BC54B",
"a. c #5CC952",
"s. c #4CC14E",
"d. c #61C44C",
"f. c #67C94D",
"g. c #63C252",
"h. c #67C658",
"j. c #65D452",
"k. c #5FC16A",
"l. c #6AC766",
"z. c #73D170",
"x. c #968455",
"c. c #A48555",
"v. c #AF925F",
"b. c #968765",
"n. c #958E70",
"m. c #A78B67",
"M. c #B8976C",
"N. c #AC9A79",
"B. c #B59B72",
"V. c #B79B78",
"C. c #A9996B",
"Z. c #B6A676",
"A. c #AEAA74",
"S. c #C49E77",
"D. c #C8A67D",
"F. c #CEB07E",
"G. c #3F7A8A",
"H. c #3976AC",
"J. c #487789",
"K. c #477997",
"L. c #537692",
"P. c #5C788B",
"I. c #487BA5",
"U. c #4C7FAA",
"Y. c #3F92B6",
"T. c #4B9885",
"R. c #488697",
"E. c #4A9797",
"W. c #509A8B",
"Q. c #70888C",
"!. c #53AA85",
"~. c #49A997",
"^. c #59A696",
"/. c #4884A7",
"(. c #5587A9",
"). c #4995A7",
"_. c #4B8BB4",
"`. c #4C8CBC",
"'. c #4988B9",
"]. c #528CBA",
"[. c #5488B5",
"{. c #4593BC",
"}. c #4B94BB",
"|. c #4C98B8",
" X c #5598BC",
".X c #668CAD",
"XX c #6992AA",
"oX c #6C94B3",
"OX c #49A0A9",
"+X c #70A4B9",
"@X c #6CAF86",
"#X c #4D8AC2",
"$X c #4B8CC5",
"%X c #538CC2",
"&X c #4B94C5",
"*X c #4F9AC2",
"=X c #4D96CA",
"-X c #4A9BCB",
";X c #4597C1",
":X c #539BC3",
">X c #539BCC",
",X c #5394C7",
"<X c #4D9DD4",
"1X c #4C94D3",
"2X c #5498D3",
"3X c #659AC6",
"4X c #48A5CB",
"5X c #56A3CB",
"6X c #5FA0C8",
"7X c #49A9D7",
"8X c #55A5D6",
"9X c #60B5DC",
"0X c #4F9EE3",
"qX c #4BA9E2",
"wX c #53AAE4",
"eX c #69BCE6",
"rX c #8F988F",
"tX c #A79F89",
"yX c #93A890",
"uX c #A3A89A",
"iX c #BAAB96",
"pX c #B4A68A",
"aX c #889BA4",
"sX c #89AAB7",
"dX c #B5B4AA",
"fX c #C9AD86",
"gX c #C7B78B",
"hX c #D5B787",
"jX c #CAB294",
"kX c #C9BFB6",
"lX c #B3C08B",
"zX c #CFC48B",
"xX c #C6C4AA",
"cX c #DBC9A3",
"vX c #8AB3C8",
"bX c #B1C4D1",
"nX c #A3CCE8",
"mX c #B4D7EA",
"MX c #9ECCED",
"NX c #C8D6D8",
"BX c #CDE3F1",
/* pixels */
"F Z ..D F D D F D { A B A H ) C Y _ S A G G A V J J J J H J S [ ",
"o.` h.o.{ D { g.o.g.o.| o.h.k.9.e.w.9.%.h.g.} { f.a.L H L { O.&.",
"l.) ..X.-. . .h.....&.%.9.w.!.~.~.~.!.q.8.t.#.{ | L L L K o.&._ ",
"z.) ) { o. .K ..#.+.9.w.q.T.).|.4X4XOXE.T.q.w.9._ )  .d.-.g.$._ ",
"h.' >.o.o.X.#.%.w.0.q.^.E.).&X8XwX7X4X|.).^.^.!.0.8.<.>.X.{ { { ",
"O.S $.#.,.<.8.0.4.4.T.E.).{.1X0XqX7X<X&X}.|.).R.W.4.8.8.@.` { | ",
"d.F X.%.8.2.5.T E.E.).).}.=X2XwX7X7X7X<X=X,X,X_./.R.4.q.r.<.g.d.",
"f.H h.l.8.2 8 R./._.`.{.=X=X1X<X7X4X4X-X$X1X2X$X%X/.0 7 2.@.o. .",
"U A ` @.0.5 G.I.'.,X>X>X=X&X>X8X7X7X4X;X&X2X2X#X#X].R.6 3 r.%.) ",
"j.P ` @.q.6 K.I.'.$X$X=X&X&X=X-X7X7X4XY.{.,X,X`.U._.K.8 2 u.t.$.",
"j.H X.9.y.6 K.I.`.`.#X&X=X>X2X<XqX7X4X{.}.:X X_.].[.K.9 7 0.+...",
"p.H >.t.y.1 J.I.].#X&X=X=X=X2X<X7X7X4X;X}.:X|._.].(.K.9 7 0.@...",
"| S $.t.y.1 J.K.[.].*X*X&X$X&X=X8X7X-X{.}. X}.`._./.K.9 7 r.#.o.",
"p.S ` @.y.1 J.I.[.].}.&X=X>X8X8XeX9X5X*X*X*X}.{.`._.K.9 2 r.X.K ",
"a.J ` @.y.1 J.I.].`.}.*X5X5X:X}.Y.Y.{.*X5X>X&X`.`.].I.9 2 r.#.{ ",
"a.J X.t.y.6 K.I.].'.]. X+X(.9 q . ; 4 R. X6X:X`.'.].I.8 2 u.>.{ ",
"d.V X.t.q.5 /.H.#X'.oXXX4 . X e M g w o > K.3X].%X[./.8 2 u...L ",
"g.F >.9.q.5 /.I.3X(.9 * o e M n D.M.M g w . 4 K.oX[.(.8 3 u.$.f.",
"g.{ l.u.@X7 L.L.4 * = e g n.m.n S.M.b.b.b.p w * - 4 L.J.5.u.X.K ",
"| S #.<.y.@ , = X e n.iXjXm.m k hXm.l c Z.gXtXg w = , > 1 i.>.K ",
"j.J { ] ( + @ O b x % x V.cXM.k M.n n fXhXv % i b.e @   @ i.,.} ",
"j.H $.<.i.$ n.Z.v.v.c.x.m.N.B.B.B.B.B.D.M.n c.v.M.m.n.p $ ;.X.) ",
"s.C &.%.r.^ gXhXF.F.gXxXxXuXuXxXpXjXfXN.Z.gXhXM.D.fXcXA.# =.X.o.",
"s.[ l.%.( # C.v z x r e f d d j r i i M b p b c x m m.x.$ ;.>.p.",
"a.S O.' ;.^ Z.v l x.r , 4 4 9 , O b tXrXuXuXn.tXm.x D.Z.& :.X.H ",
"a.D | } :./ zXx.v.V.g h XX(.U.f p N.dXQ.Q.Q.h uXiXc D.Z.& 1.>.[ ",
"f.G  .-.=.I zXx.C.jX7.Q.vX.X.XP.g iXNXsXXX.XXXbXkXb fXA.& :.X.) ",
"g.G } -.=.^ lXb.n.dX7.aXvX.X.XQ.j uXNXmXnXMXnXBXdXg pXC.# =.] $.",
",.` #.<.;.~ yX6.7.rXh aXbXsXXXP.f Q.sXsXvXvX+XsXaXj rX6.^ :.] h.",
"l.' ,.t.r.W u y : u : s Q.d d a a y a 6 6 6 1 1 s y s u ! <.} p.",
"a.S o.X.%.Q < < t t t t t W W ! W < < < < < t W u < t < E ' K P ",
"| B A V ' +.R 0.r.! ;./ / ;.E E ! Q 3.r.r.! ! ! ! ! 3.Q E D p.P "
};
