/* XPM */
static char *_b7d45272d0d40fecea2ef1aa214bea8Uv23RhzwLmePqhWO[] = {
/* columns rows colors chars-per-pixel */
"32 32 213 2 ",
"   c #140000",
".  c #190202",
"X  c #031D00",
"o  c #071500",
"O  c #131B00",
"+  c #250300",
"@  c #2F0900",
"#  c #3C0000",
"$  c #390700",
"%  c #251800",
"&  c #3E0D11",
"*  c #032300",
"=  c #092300",
"-  c #112300",
";  c #152F00",
":  c #053C00",
">  c #103800",
",  c #3E2F00",
"<  c #373100",
"1  c #2A2900",
"2  c #0C1D24",
"3  c #440E00",
"4  c #440000",
"5  c #510300",
"6  c #5C0900",
"7  c #421A00",
"8  c #5A0B11",
"9  c #6E0D00",
"0  c #630800",
"q  c #710600",
"w  c #641400",
"e  c #7A1503",
"r  c #6A1518",
"t  c #74151D",
"y  c #402000",
"u  c #572803",
"i  c #4F3936",
"p  c #184813",
"a  c #105C1B",
"s  c #1B4505",
"d  c #3A4708",
"f  c #335C16",
"g  c #1E4123",
"h  c #1B5524",
"j  c #3E4D26",
"k  c #266825",
"l  c #2C7530",
"z  c #29722D",
"x  c #495513",
"c  c #56611F",
"v  c #426C1A",
"b  c #58712F",
"n  c #4D7830",
"m  c #566627",
"M  c #2B4043",
"N  c #3F4650",
"B  c #404855",
"V  c #64535B",
"C  c #446F42",
"Z  c #596E4D",
"A  c #646C57",
"S  c #6A6169",
"D  c #64766A",
"F  c #8A0505",
"G  c #9C0706",
"H  c #9F100C",
"J  c #9F0E1F",
"K  c #971617",
"L  c #840C15",
"P  c #AF0002",
"I  c #B8060E",
"U  c #B11224",
"Y  c #8D2025",
"T  c #8D3126",
"R  c #C3040C",
"E  c #CD141B",
"W  c #CF0A24",
"Q  c #C71B29",
"!  c #C42126",
"~  c #C13A3E",
"^  c #CF223A",
"/  c #9F473B",
"(  c #B3675A",
")  c #886C60",
"_  c #B46B67",
"`  c #FA6175",
"'  c #2E931D",
"]  c #30AB1F",
"[  c #26A113",
"{  c #3D9E2B",
"}  c #3B9C31",
"|  c #2EA927",
" . c #37A12C",
".. c #3DA42B",
"X. c #37A72A",
"o. c #3CB42F",
"O. c #3AA535",
"+. c #3DAB33",
"@. c #3DB134",
"#. c #429E2E",
"$. c #46A62A",
"%. c #43A532",
"&. c #44AC35",
"*. c #4AAC36",
"=. c #4FA63E",
"-. c #45AD3C",
";. c #4BAC3C",
":. c #45A636",
">. c #52AD3C",
",. c #50AB36",
"<. c #44B23B",
"1. c #4BB33D",
"2. c #47BC3C",
"3. c #4ABA3F",
"4. c #47B434",
"5. c #52B33E",
"6. c #54BF3E",
"7. c #4CC43F",
"8. c #3C8746",
"9. c #419942",
"0. c #59934F",
"q. c #679346",
"w. c #699D5D",
"e. c #4CAD41",
"r. c #48AE49",
"t. c #52AD43",
"y. c #55AE4C",
"u. c #58A749",
"i. c #45B641",
"p. c #4CB444",
"a. c #4DBB44",
"s. c #4DB549",
"d. c #4EBA4B",
"f. c #47BA43",
"g. c #53B443",
"h. c #5AB544",
"j. c #54BA44",
"k. c #5BBA46",
"l. c #54B54A",
"z. c #5AB54B",
"x. c #54BB4A",
"c. c #5BBB4B",
"v. c #54AE58",
"b. c #5CAB58",
"n. c #53B352",
"m. c #5BB452",
"M. c #55BD51",
"N. c #5ABD51",
"B. c #5CBE52",
"V. c #5CBC52",
"C. c #5BB45C",
"Z. c #59B75B",
"A. c #66A64F",
"S. c #62BC4D",
"D. c #67A956",
"F. c #78A756",
"G. c #62B754",
"H. c #61BD52",
"J. c #63BF5C",
"K. c #69B45B",
"L. c #74B45C",
"P. c #73B85D",
"I. c #749072",
"U. c #56AC61",
"Y. c #73AF64",
"T. c #6EB664",
"R. c #67B965",
"E. c #4DC146",
"W. c #53C145",
"Q. c #54C24A",
"!. c #5BC24C",
"~. c #5BC94E",
"^. c #5AC145",
"/. c #5CC351",
"(. c #59C358",
"). c #63C24E",
"_. c #61C146",
"`. c #62C355",
"'. c #61C852",
"]. c #68C659",
"[. c #64D058",
"{. c #68C562",
"}. c #76CE6A",
"|. c #8F8D78",
" X c #99817D",
".X c #A99675",
"XX c #85C36E",
"oX c #6E7180",
"OX c #FB7880",
"+X c #838D8E",
"@X c #9B9D8F",
"#X c #8C959A",
"$X c #A59296",
"%X c #9FA19E",
"&X c #A1A994",
"*X c #AAB1A1",
"=X c #B0AEBB",
"-X c #AEBBB1",
";X c #DC8784",
":X c #E5B6B0",
">X c #F18F8C",
",X c #ABCEB0",
"<X c #CCDED0",
"1X c #D8D9DD",
"2X c #FFCACC",
"3X c #FFD1CF",
"4X c #EBD3C9",
"5X c #DCDFE4",
"6X c #EAF0F0",
"7X c #F6FAFF",
"8X c #FBFFFE",
"9X c #F9FFF6",
"0X c #E4EDF2",
/* pixels */
"' 1.a.<.1.1.>.>.>.;.%.%.>.>.*.&.f.@.+.*.*.$.$.*.1.&.#.;.*.X.o.| ",
"*.!.!.a.g.g.g.j.`./.j.g.).).h.g.i.f.j.!.)._.^.^.'.c.g.k.c.j.~.7.",
"1.j.j.g.j.j.j.!.1.a.p.g.k.k.5.g.d.x.g.;.;.j.x.j.s.x.l.H.S.h.g. .",
"<.1.5.g.h.j.j.Q.f.Q.!.c.h.5.g.c.l.B.B.l.j.c.x.p.s.x.s.l.l.z.c.%.",
"a.a.c.S.c.j.a.a.Q.!.).S.h.g.j.!.l.m.V.c.V.`.`.B.x.M.s.d.s.x./.;.",
"<.i.c.c.g.j.a.3.j.1.>.>.>.g.j.p.l.l.t.t.t.t.z.z.l.x.s.x.a.i.j...",
"O.-.c.c.1.j.Q.j.'.k.h.k.j.Q.E.i.B.B.B.`.H.h.t.>.].c.1.j.a.a.~.j.",
"g.B.].`.g.c.'.j.).k.k.!.!././.s.`.B.B.B.B.c.S.S.`.k.g.'.!.j.W.4.",
"t.t.t.j.c.g.5.).*.c.c.x.s.e.z.G.u.z.H.l.e.l.B.h.>.h.k.h.5.k.j...",
"=.t.g.j.c.h.g.!.].g.g.t.z.K.A.F.F.F.L.P.G.m.l.-.g.g.k.k.h.k.c.*.",
"=.z.c.j.k.c.j.x.<.-.}.P.q.m 1 % . % d b q.T.{.n.B.x.c.S.z.c.x.-.",
"e.B.B.x.c.c.g.p.M.V.q.d % @ 7 u w w 3 + O f u.Z.(.d.l.c.l.l.x.d.",
";.B.c.x.c.c.s.s.B.P.c 7 w T ( / K G F 9 3 < n K.Z.s.s.l.s.s.d.d.",
"-.l.x.g.k.c.d.M.z.q.u 9 ~ ` 3X>X! R P H 9 $ d A.n.s.x.c.x.g.s.O.",
";.g.g.j.k.j.p.B.u.x w H ^ ` 2X;X! E R P F 6 , v t.p.x.c.k.S.j.%.",
"l.l.g.l.c.p.-.z.D.< e Q W ^ _ r F ! I G G e y = K.c.c.5.,.k.k.*.",
"O.<.Q.x.p.x.M.t.F.% q Q W Q Y 5 # 5 L F K 0 7 - L.l.1.!.k.>.g.:.",
"-.f.Q.x.;.g.B.m.XXo 5 F U J 5 :X4Xi # t t 4   ; T.V.1.c.k.k.`.j.",
"g.S.].`.z.H.].J.K.s .X_ 8 #   %X6XS . + & ) j : R.(.x.!.c.k.!.-.",
">.5.k.c.h.l.z.Z.v.z Z |. X$X+XM 2 N S V i A C l v.M.x.c.j.j.j. .",
"5.1.<.<.j.g.l.Z.n.R.p I.9X8X0X#XB oX=X1X-Xg h U.r.s.1.j.5.j.Q.+.",
"j.j.a.E.~./.c.J.Z.C.a 0.,X<X8X7X7X5X#XD I.h 8.v.n.d.p.W.j.j.Q.@.",
"%.j.W.a.j.j.g.g.m.Z.C.z o * I.&X@X*XZ X * k b.y.`.c.g.!.W.a.Q.<.",
"%.'.[.a.1.5.g.h.].{.n.9.T.0.> * - X p w.b.K.y.`.`.j.&.g.p.1./.Q.",
"*.;.1.1.p.j.c.h.;.g.x.x.l.y.A.D.Y.Y.D.u.t.c.c.g.5.j.c.x.x.g.;.O.",
"5.g.j.x.x.c.c.c.l.B././.x.g.g.z.m.m.m.x.x.Q.j.g.*.g.x.j.x./.c.e.",
"1.a.x.x.x.x.x.x.l.c.B.c.x.j.k.c.l.s.s.d.x.j.j.j.g.c.x.s.s./.c.;.",
"%.i.x.s.s.d.d.e.s.e.t.g.l.j.h.j.x.s.p.a.a.1.g.c.c.c.l.s.s.x.s.1.",
"%.j.!.g.s.M.x.p.`.c.g.g.c.B.h.e.c.l.l.c.c.g.g.z.`.l.t.x.M.x.a.W.",
"1.!.'.x.j./.`.c.].B.l.x.`.].H.z.H.c.c.c.c.j.x.B.].V.l.c./.j.3.2.",
"@.2.E.a.3.j.j.k.g.g.p.p.x.x.c.c.g.j.j.g.1.p.j.x.c.V.z.t.g.j.4.] ",
"| | X.@.+...$.5.%.*.<.&.O. .:.;.{ *.5.1.<.<.<.+.} ;.=.#.:.6.4.[ "
};
