/* XPM */
static char *_a7b07d6abef495d9dee03fd15df07a67GEZXmx7zmhkpB7M[] = {
/* columns rows colors chars-per-pixel */
"32 32 237 2 ",
"   c #150000",
".  c #1F1900",
"X  c #320F00",
"o  c #3E2701",
"O  c #292A00",
"+  c #3A3436",
"@  c #571F0E",
"#  c #492C00",
"$  c #59360E",
"%  c #65251C",
"&  c #03570C",
"*  c #3E5919",
"=  c #2B5211",
"-  c #3E6A13",
";  c #30542B",
":  c #196B26",
">  c #356438",
",  c #5A4716",
"<  c #4F4A11",
"1  c #64591A",
"2  c #74551D",
"3  c #724E17",
"4  c #496A17",
"5  c #5A6414",
"6  c #5B4827",
"7  c #505529",
"8  c #765A27",
"9  c #6F4E31",
"0  c #586729",
"q  c #5C792B",
"w  c #6C6728",
"e  c #61752C",
"r  c #786B30",
"t  c #7A7439",
"y  c #6F7531",
"u  c #364C56",
"i  c #40585C",
"p  c #774D55",
"a  c #6B514A",
"s  c #716D4D",
"d  c #5F5E6E",
"f  c #695D64",
"g  c #735368",
"h  c #566A78",
"j  c #706C74",
"k  c #873315",
"l  c #922016",
"z  c #912D2F",
"x  c #B3382B",
"c  c #C53F36",
"v  c #97572C",
"b  c #924C2F",
"n  c #B15131",
"m  c #857A39",
"M  c #8C6F32",
"N  c #A4673B",
"B  c #CB4236",
"V  c #D6523D",
"C  c #A83F43",
"Z  c #884455",
"A  c #9C5657",
"S  c #924B4A",
"D  c #B2554A",
"F  c #A85859",
"G  c #9E6649",
"H  c #97734D",
"J  c #877557",
"K  c #977959",
"L  c #856848",
"P  c #BB6A42",
"I  c #A46851",
"U  c #A47E55",
"Y  c #B27350",
"T  c #825A62",
"R  c #A25661",
"E  c #8C7B69",
"W  c #BB7371",
"Q  c #DD5A46",
"!  c #C35558",
"~  c #E6564A",
"^  c #F55C4B",
"/  c #FB5C47",
"(  c #FB5F52",
")  c #D46D4D",
"_  c #CA724F",
"`  c #CF6D50",
"'  c #E86747",
"]  c #E86B59",
"[  c #FD6C54",
"{  c #FD6D5A",
"}  c #FB6555",
"|  c #EA765A",
" . c #F67052",
".. c #CE6F6B",
"X. c #FB7862",
"o. c #F77662",
"O. c #32921A",
"+. c #3A9A28",
"@. c #31982B",
"#. c #38A529",
"$. c #3CAB32",
"%. c #39AA36",
"&. c #3BB33A",
"*. c #3BB236",
"=. c #2CA826",
"-. c #4D8429",
";. c #598A34",
":. c #449E34",
">. c #5A9237",
",. c #449D29",
"<. c #6A863A",
"1. c #758539",
"2. c #629338",
"3. c #41AA2E",
"4. c #45A534",
"5. c #43AC34",
"6. c #45AD3B",
"7. c #4CAB3C",
"8. c #47A937",
"9. c #51AC3D",
"0. c #44B43B",
"q. c #4CB43D",
"w. c #45B438",
"e. c #54B53E",
"r. c #43B02F",
"t. c #55C03F",
"y. c #3FB140",
"u. c #559949",
"i. c #6B8D44",
"p. c #788C45",
"a. c #6C9C4C",
"s. c #779A4B",
"d. c #609D57",
"f. c #44AD41",
"g. c #4CAD43",
"h. c #4AA543",
"j. c #55AD43",
"k. c #55AE4B",
"l. c #5BA948",
"z. c #4CB443",
"x. c #4CBB43",
"c. c #4DB549",
"v. c #4DBC4A",
"b. c #45B442",
"n. c #53B444",
"m. c #5AB545",
"M. c #53BB45",
"N. c #5BBA46",
"B. c #54B54A",
"V. c #5CB54C",
"C. c #54BB4B",
"Z. c #5BBC4B",
"A. c #5CB650",
"S. c #5CBC51",
"D. c #58B857",
"F. c #54AD51",
"G. c #61A246",
"H. c #6BA24A",
"J. c #6DAA4D",
"K. c #66A84B",
"L. c #74A34C",
"P. c #61B54D",
"I. c #62B948",
"U. c #6AAD53",
"Y. c #68AB54",
"T. c #75AB53",
"R. c #63BB53",
"E. c #6ABC5A",
"W. c #67B656",
"Q. c #73BC5D",
"!. c #75B456",
"~. c #649962",
"^. c #59B367",
"/. c #77B862",
"(. c #6FA96C",
"). c #4FC148",
"_. c #53C34B",
"`. c #5CC24D",
"'. c #55C146",
"]. c #56C251",
"[. c #5DC353",
"{. c #5CCB57",
"}. c #61C54F",
"|. c #62C94D",
" X c #64C353",
".X c #66C659",
"XX c #73C15E",
"oX c #69C668",
"OX c #7DC769",
"+X c #838943",
"@X c #9C844B",
"#X c #869A52",
"$X c #8C924B",
"%X c #B29A5C",
"&X c #85A157",
"*X c #928D71",
"=X c #A78B61",
"-X c #B69070",
";X c #ACAC6C",
":X c #C59177",
">X c #F5826D",
",X c #C7B07C",
"<X c #82C168",
"1X c #CCC47C",
"2X c #8E7989",
"3X c #7A8B93",
"4X c #7BA8B1",
"5X c #B29B89",
"6X c #B4AA8B",
"7X c #AFA395",
"8X c #8196A9",
"9X c #82A8BD",
"0X c #B9B2A1",
"qX c #B3B0AE",
"wX c #92988E",
"eX c #D69989",
"rX c #CF8889",
"tX c #FF9B91",
"yX c #CCA688",
"uX c #C8BD87",
"iX c #D5BC83",
"pX c #C6A896",
"aX c #D2AD95",
"sX c #FAA795",
"dX c #EBB198",
"fX c #EFB3A5",
"gX c #D5BAA9",
"hX c #D5C991",
"jX c #C7C2BE",
"kX c #EAD8A5",
"lX c #F8D6BC",
"zX c #EFD7B1",
"xX c #D5D0CA",
"cX c #EBD4CA",
"vX c #FFEDC4",
"bX c #FFF7FB",
"nX c #FFEDEC",
/* pixels */
"O.w.n.7.g.b.y.&.&.0.$.#.3.w.w.q.5.w.%.*.v.%.+.n.c.*.#.0.5.#.5.#.",
"r.'.`.n.B.B.b.v.{._.q.q.|.}.q.5.q.M._._.{.v.7.Z.{._.x._.M.M.|.t.",
"w.x.M.n.B.B.C.].b.C.Z.Z.m.j.n..XR.R.B.f.z.C.Z.Z.b.v.v.`.Z.e.e.#.",
"0.0.q.n.m.m.Z.[.z.S.R.K.J.H.H.L.L.T.T.U.!.XXR.4.c.v.z.B.n.m.N.3.",
").x.M.`.N.M.B.B.n.Q.!.s.+Xm r 2 2 8 r y 1.s.!.P.C.).z.n.m.m.`.5.",
"&.0.M.Z.n.M.C.n.V.J.y 1 3 v _ ) _ _ P v 3 1 <.Q.B.v.z.Z.m.n.M.#.",
"%.0.Z.N.9.M.].B.Q.i.8 v ) o.[ [ { X.o.| ` v w s..XC.z.B.m.m.[.M.",
"b._..X Xn.Z..XA.T.1.N ) X.[ / [ ^ ^ ^ { X.n 8 p.Q.S.B..X XN.'.w.",
"&.0.7.N. Xn.z.E.a.1 P o.[ / [ ' ' ' } ^ { o.N r a.W.R.n.9. Xq.$.",
"&.x.n.m.N.7.n.Q.<., n Q / [  .' ' ] { { { Q v , s.Y.A.B.n. XM.5.",
"w.M.n.m.Z.B.V.Y.<.$ n B } { V | | ] ~ } ~ n b $ s.Y.V.S.Z.Z.M.7.",
"6.Z.N.N.Z.Z.S.G.p.# k c x V >XsXsXtX] B c x k o &XU.V.S.B.n.M.q.",
"4.`.`.B.z.B.R.H.#X3 b ` l l ..D C ..! z x D b r #XG.k.C.n.z.B.n.",
"9.Z.n.C.C.S.W.;.$X,XG I ..rXrXA A W rX:XW I H hX<.-.l.S.V.Z.B.z.",
"n.B.6.C.[.R.J.4 +XkXH 9 pXnXbXbXbXnXbXnX5XL =XhX0 4 J.P.V..Xc.f.",
"n.Z.c.].C.j.G.4 1.hXuX*Xs 0XxXqX7XjXxX7Xa K kXuXe - U.j.7.[.g.f.",
"$.0.v.v.v. XP.-.5 ;XiXK yX=X  E 6X6   aXeX=XiX$X4 ;.l.B.z.M.B.6.",
"$.M.[.n.5.n.P.>.4 m %X-XzX:XX yXvXU X dXdX:X%X5 q >.k.S.Z.`.`.z.",
"0.`..XR.V.E.W.2.1.w m @X=X-XG dXlX..I yXU U 3 m 1.>.l.R. XZ.v.0.",
"*.q.m.V.V.R.G.;.;X;Xt , 6 K -XfXdXfXK J $ , @X1X1.>.l.R.Z.Z.v.%.",
"0.z.g.j.B.j.l.H.q ;XO . *Xj + f j a ; wXs . # ;Xe >.K.A.m.Z.M.6.",
"v.c.n.V..XS.B.U.i.O 7 0XwX3X8Xu u i 3X3XE 5Xo < i.Y.E.S.j.N.M.5.",
"%.c.B.B.[.].b.h.Y.* 6XcXf j 8X9X4X4X3Xd 2XcX*X0 /.E.R.Z.n.N.M.w.",
"%.{.oXz.6.b.v.D.OX= *XpXp 2Xj h h d 2Xg T gXs ;./.B.g.n.m.Z.}._.",
"f.f.z.n.B.V.C.C.g.H.7 L S R p p p p Z A S L * K.n.C.Z.Z.V.n.6.#.",
"z.c.C.C.P.R.S.C.c.E.s., b S z A A F z F 9 w L.j.6.x.Z.m.Z.`.M.0.",
"g.B.C.C.V.P.V.B.x.S.<Xy 9 fXW % @ % eXaX6 p.OX Xq.Z.Z.n.z._.C.6.",
"4.c.v.x.n.m.m.7.x.0.V.u.0 zXpX6 J 9 lXpX7 a.:.0.Z.Z.B.z.x.x.x.0.",
"4.C._.x.z.Z.I.9.M.].C.h.d.; > ~.(.~.; ; d.W.B.n. Xm.n.M._.).x.M.",
"0._.{.).M.`.}.N.N.[.C.oXD.& : ^.^.oX& : oXk.n.n..XV.B.Z.`.).x.x.",
"*.0.x.x.x.M.M.N.n.4.4. X:.D.^.D..XV.E.F.B.B.w.|.N.Z.n.n.n.M.0.#.",
"=.=.$.5.5.$.5.q.e.,.I.O.9.7.@.g.4.+.V.h.8.z.#.#.+.7.7.:.4.M.q.@."
};
