/* XPM */
static char *_41ff2f722514a5fa6c30b10474f9dc269x3ZQzAauTAyEDd[] = {
/* columns rows colors chars-per-pixel */
"32 32 231 2 ",
"   c #220000",
".  c #223600",
"X  c #58151E",
"o  c #6F1E13",
"O  c #5E3F11",
"+  c #6B3B18",
"@  c #1A580F",
"#  c #2E4F13",
"$  c #36692E",
"%  c #504C1B",
"&  c #6A4916",
"*  c #685618",
"=  c #78591D",
"-  c #7F4C17",
";  c #4F701F",
":  c #58711E",
">  c #57583A",
",  c #69572A",
"<  c #775A2A",
"1  c #775D37",
"2  c #714726",
"3  c #577425",
"4  c #597835",
"5  c #526B2E",
"6  c #656729",
"7  c #73672E",
"8  c #7B6D32",
"9  c #6C7B3A",
"0  c #787531",
"q  c #3F7946",
"w  c #5A5C4F",
"e  c #644648",
"r  c #4A714A",
"t  c #6E734A",
"y  c #677664",
"u  c #85351C",
"i  c #9A2C1D",
"p  c #9B3427",
"a  c #9B3936",
"s  c #8F342D",
"d  c #A9362A",
"f  c #B6362E",
"g  c #AD3B34",
"h  c #B93834",
"j  c #B02D2C",
"k  c #C53A35",
"l  c #C12D2B",
"z  c #9A492B",
"x  c #985628",
"c  c #8E5034",
"v  c #AC4836",
"b  c #B2453A",
"n  c #A35638",
"m  c #86732E",
"M  c #876737",
"N  c #88753B",
"B  c #946338",
"V  c #CB453B",
"C  c #D74439",
"Z  c #F85B3C",
"A  c #8E3E4B",
"S  c #954745",
"D  c #AB5655",
"F  c #926E55",
"G  c #B06D4D",
"H  c #965E6B",
"J  c #B25162",
"K  c #966F6E",
"L  c #AD7672",
"P  c #C64747",
"I  c #C25E44",
"U  c #CA594F",
"Y  c #FC5C43",
"T  c #E55B4F",
"R  c #CB7348",
"E  c #D3744D",
"W  c #E96745",
"Q  c #FD6146",
"!  c #FD644B",
"~  c #FE6B4D",
"^  c #F66448",
"/  c #FC6C55",
"(  c #F86B58",
")  c #FE735B",
"_  c #FF7A5F",
"`  c #CB7474",
"'  c #FE7867",
"]  c #2B9A1B",
"[  c #389B22",
"{  c #3C9D33",
"}  c #3EA42C",
"|  c #38A72B",
" . c #3BB22C",
".. c #39AA37",
"X. c #3DB43A",
"o. c #3AB53A",
"O. c #2CA62F",
"+. c #5B8328",
"@. c #4A8D33",
"#. c #648436",
"$. c #42A32E",
"%. c #46AC2E",
"&. c #43A633",
"*. c #45AA34",
"=. c #4AAD35",
"-. c #43AE3A",
";. c #4BAC3A",
":. c #49A538",
">. c #51AE3B",
",. c #51AA36",
"<. c #44B23A",
"1. c #4CB33C",
"2. c #4AB437",
"3. c #53B33D",
"4. c #54B93E",
"5. c #58B53F",
"6. c #3CA348",
"7. c #589A4E",
"8. c #4E935C",
"9. c #6E8E42",
"0. c #788346",
"q. c #689545",
"w. c #769749",
"e. c #6A9C54",
"r. c #6D925E",
"t. c #779150",
"y. c #4BAC44",
"u. c #45AA48",
"i. c #57AB49",
"p. c #44B442",
"a. c #4DB444",
"s. c #4DBA44",
"d. c #4CB54A",
"f. c #4DBA4A",
"g. c #47BD45",
"h. c #53B443",
"j. c #59B545",
"k. c #55BB44",
"l. c #5BBA46",
"z. c #53B54A",
"x. c #5BB54B",
"c. c #54BC4B",
"v. c #5BBB4C",
"b. c #5DA654",
"n. c #4DB852",
"m. c #5BB353",
"M. c #55BC52",
"N. c #5BBB53",
"B. c #5CB757",
"V. c #6AA54C",
"C. c #6CAB4D",
"Z. c #65A84A",
"A. c #62BC4C",
"S. c #62B64A",
"D. c #68A855",
"F. c #75A754",
"G. c #62B553",
"H. c #64BA54",
"J. c #6BB259",
"K. c #64BB5B",
"L. c #6ABE5D",
"P. c #6AB656",
"I. c #75B75A",
"U. c #729B78",
"Y. c #5EB962",
"T. c #6ABA65",
"R. c #79B962",
"E. c #7DBD73",
"W. c #53C245",
"Q. c #55C54B",
"!. c #5DC24D",
"~. c #5DC449",
"^. c #5CC352",
"/. c #5CC55B",
"(. c #58C553",
"). c #4FC44B",
"_. c #63C24D",
"`. c #63C553",
"'. c #64C45B",
"]. c #67C958",
"[. c #6ECE5D",
"{. c #918435",
"}. c #848A48",
"|. c #9A8C48",
" X c #8E8D53",
".X c #AA8B56",
"XX c #A99954",
"oX c #AB8C50",
"OX c #84A756",
"+X c #8EB05B",
"@X c #B3A55A",
"#X c #B28C70",
"$X c #B7AD6A",
"%X c #989369",
"&X c #DC835B",
"*X c #C59570",
"=X c #C1A966",
"-X c #C9AA6A",
";X c #CAB46C",
":X c #CFA17D",
">X c #C9B975",
",X c #D1BF75",
"<X c #83C16E",
"1X c #ABC16C",
"2X c #C3C679",
"3X c #778F82",
"4X c #9A9693",
"5X c #BC8E8C",
"6X c #AFB49D",
"7X c #99B9AE",
"8X c #90AB8A",
"9X c #D48F94",
"0X c #E68D8C",
"qX c #C4A486",
"wX c #DCAA8C",
"eX c #CFB58A",
"rX c #E0BC98",
"tX c #FFBEB1",
"yX c #E8B8A4",
"uX c #D6D68D",
"iX c #CECD8D",
"pX c #E3D991",
"aX c #EAE195",
"sX c #ECCEB2",
"dX c #FFF3AB",
"fX c #DFEDD3",
"gX c #FFF3C9",
"hX c #FFEEF0",
"jX c #FEFBF4",
"kX c #F7E0E6",
"lX c #D0D2C7",
/* pixels */
"] <.g.X.X.X.X.X.<.a.:.{ y.a.<.X.o...| <.s...| <.;.=.$.=.2.|  . .",
"<.Q.(.f.f.f.1.s.!.v.z.z.'.'.c.<.f.f.c.^.c.a.c.].`.!.>.3.3.2.W.W.",
"1.c.c.d.j.j.l.A.l.h.c.M.M.m.x.i.H.x.G.H.x.N.(.p.d.M.j.A.A.h.s...",
"y.h.z.z.x.j.S.A.5.;.N.'.m.Z.F.w.OXOXOXw.w.I.L.z.d.(.c.v.H.x.c...",
"j.j.v.N.v.j.j.j.~.l.].I.q.9 8 < & = = = = 0 w.I.z.(.f.c.z.j.f...",
";.1.v.N.j.h.k.1.=.j.C.9.7 c G R &XE R E R x = #.i.M.p.f.j.h.d...",
"} =.v.v.3.k.Q.s.`.I.w.7 x I ( _ ~ W W / ) W x * +X'.f.f.c.j.(.Q.",
"2.~.]._.h.v.^.c.L.e.6 + I ' ) Y Q ~ ~ Q ! _ E u }.Z.z./.].k.k.<.",
"} k.5.j.j.j.K.G.e.t F D g ' ! ! ~ Z ^ ^ / ) I z * #.P.N.;._.1.[ ",
"2.1.;.j.v.x.m.7.5 sX5X0XP T / ~ Y Q ) ) ( T V v & 9 V.G.j.`.!.%.",
"j.j.a.c.c.m.7.$ 6XjXH 9XJ f ( ^ / / ) T C k h v 2  XF.K.j.h.k.$.",
";.v.(.M.d.B.b.@ fXjX5XL J a P C C C C V k k h v + }.F.K.c.p.^.k.",
"y.N./.).p.M.B.$ U.jXkXK A a j k j l k V k f d u O 0.Z.N.c.f.].k.",
"y.d.d.f.p.c.'.D.$ 8XlXhX9X` b f P h h g i p n B N 9.C.v.f.f.a.} ",
"n.d.p.c.k.>.A.P.D.$ r 6XL D a b g p p z z G eXuX+X+.Z.j.h.c.1.*.",
"f.c.h.v._.3.5.j.m.E.r.> #XF o s u u n G oX$XpXuX1X+.C.S.3.c.1.h.",
"*.;.k.k.1.W.W.-.x.Z.4 0.gXqX  :X.X=X-X=X|.|.>XaXiX3 C.S.h.h.k.&.",
";.3.l.k.2.4.Q.s.`.I.F.0.iXeX2 rX.X,XaX@X{.@X,XpX2X: V.G.N.v.!.1.",
"a.!.[.`.k.W.^.^.c.G.R.t.%XqX#XyXF ,XdXXXm ;X;X>X$X3 V.H.`.c.k.*.",
"-.s.v.v.j.3.k.c.a.;.J.e.5 t K K < @X>Xm m =X=X@X}.; V.G.c.k.k.} ",
"p.p.p.h.j.5.j.A.A.j.K.T.q r 3Xw F .XM * m |.XX|.: 3 J.m.z.c.^.&.",
"s.f.f.c.`.A.A._.l.v.B.T.8.U.7Xy 5XwXM < N 8 0 6 #.q.T.N.d.f.^.&.",
"&.c.c.s.c.k.1.1.k.h.i.b.r y 4Xe 9XsX*X1 7 6 3 3 F.J.K.z.c.a.v.:.",
":.`.].a.a.k.1.1.[.v.z.D.4 > H X ` tXwX% # 4 q.I.R.m.y.y.M.c.`.l.",
",.>.>.h.h.c.k.s.s.1.A.C.9 1 S s U 0XL , . V.J.i.i.M.N.M.c.h.;.} ",
"3.5.j.j.v.v.v.k.<.W._.P.t.< c D o c M % 4 I.K.d.y.z.M.z.c.^.c.-.",
">.5.l.v.x.A.v.j.*.W.!.A.F.4 6 F *X#X1 % e.L.N.f.a.c.c.h.h.v.c.<.",
"&.3.l.h.h.j.j.;.k.4.3.h.x.C.q.4 sXeXt q.i.z.-.p.!.v.j.h.h.k.s.<.",
"&.k.!.j.h.v.v.1._.k.j.>.h.[.L.@.# 5 9.<XG.a.c.k.^.j.h.j.v.k.s.k.",
"2.!.`.v.l.!.!.k.k.l.A.v.v.'./.m.@ @ b.T.'.-.].k.`.l.j.v.!.k.s.s.",
"X.s.c.k.j.j.k.k.<.k.l.j.z.a.d./.Y.u.Y.y.c.;.~.4.l.l.j.3.j.k.2.} ",
"O.O.&.;.:.$.&.1.<.-.&.&.{ { ..u.6.u.n.u.;.1.} %.[ =.=.{ &.l.1.[ "
};
