/* XPM */
static char *_ecd3d51ffde4fbecc611aecdff838ddFxvmBtwtxY5UibYp[] = {
/* columns rows colors chars-per-pixel */
"32 32 233 2 ",
"   c #320000",
".  c #2D2F0A",
"X  c #532507",
"o  c #49391D",
"O  c #522E12",
"+  c #6D3015",
"@  c #4B3C28",
"#  c #573E37",
"$  c #60292C",
"%  c #1B5C14",
"&  c #0C5506",
"*  c #2D5119",
"=  c #385B18",
"-  c #3D411C",
";  c #39671F",
":  c #345928",
">  c #216A21",
",  c #5B441C",
"<  c #5A541C",
"1  c #6A561B",
"2  c #77561B",
"3  c #6C421F",
"4  c #556B19",
"5  c #53731D",
"6  c #4D621D",
"7  c #65691E",
"8  c #60771F",
"9  c #494025",
"0  c #574936",
"q  c #5B5837",
"w  c #484B2C",
"e  c #6C4B23",
"r  c #62473A",
"t  c #744C35",
"y  c #755327",
"u  c #516329",
"i  c #52782C",
"p  c #6B6F2C",
"a  c #686321",
"s  c #726927",
"d  c #687427",
"f  c #6A7733",
"g  c #747637",
"h  c #726835",
"j  c #5D5842",
"k  c #665F47",
"l  c #6E4F44",
"z  c #726C47",
"x  c #767448",
"c  c #786C58",
"v  c #787953",
"b  c #656549",
"n  c #8E2F19",
"m  c #9D2E29",
"M  c #9A3825",
"N  c #833936",
"B  c #B92C26",
"V  c #B93D33",
"C  c #A83A33",
"Z  c #C33A36",
"A  c #D23C35",
"S  c #C32E2A",
"D  c #84501E",
"F  c #884227",
"G  c #86562B",
"H  c #985E2D",
"J  c #964F2F",
"K  c #BA4338",
"L  c #A75535",
"P  c #AC4235",
"I  c #816533",
"U  c #887537",
"Y  c #95643C",
"T  c #A56939",
"R  c #CB423B",
"E  c #C74538",
"W  c #D5453C",
"Q  c #F85A3D",
"!  c #E9643E",
"~  c #8E3B48",
"^  c #954643",
"/  c #9D5853",
"(  c #8A474A",
")  c #AC5854",
"_  c #886E4E",
"`  c #B5704B",
"'  c #AD5261",
"]  c #CD4643",
"[  c #F75B49",
"{  c #EF574C",
"}  c #D4764E",
"|  c #D27A53",
" . c #D2724E",
".. c #FC654B",
"X. c #F76A47",
"o. c #FD6A59",
"O. c #FB7559",
"+. c #EE6E4E",
"@. c #FF7463",
"#. c #FF7B61",
"$. c #30971B",
"%. c #3A9F2E",
"&. c #3D9934",
"*. c #36A52B",
"=. c #3AA32C",
"-. c #39A627",
";. c #3BA737",
":. c #3DB132",
">. c #419D1E",
",. c #42A31E",
"<. c #4E8F32",
"1. c #66832B",
"2. c #628832",
"3. c #669A3C",
"4. c #42A82C",
"5. c #46A533",
"6. c #43AA33",
"7. c #4CAB35",
"8. c #46AC3B",
"9. c #4BAC3B",
"0. c #45A537",
"q. c #51AD3A",
"w. c #55AB38",
"e. c #45B33D",
"r. c #4BB23D",
"t. c #48B639",
"y. c #54B33F",
"u. c #5ABA3C",
"i. c #50AA2E",
"p. c #3EB041",
"a. c #5B8944",
"s. c #569844",
"d. c #698846",
"f. c #758B44",
"g. c #699E47",
"h. c #769A49",
"j. c #7C9556",
"k. c #6E9F5D",
"l. c #4DAE42",
"z. c #4EA543",
"x. c #54AF44",
"c. c #54AF4A",
"v. c #5CAB4C",
"b. c #54A646",
"n. c #45B342",
"m. c #4CB444",
"M. c #4CBB44",
"N. c #4EB64A",
"B. c #4DBA4A",
"V. c #53B444",
"C. c #5AB444",
"Z. c #52BA45",
"A. c #5ABA45",
"S. c #54B54A",
"D. c #5BB44B",
"F. c #54BB4C",
"G. c #5BBA4C",
"H. c #5AAA53",
"J. c #4DBB50",
"K. c #55B751",
"L. c #5DB454",
"P. c #56BD53",
"I. c #5BBB52",
"U. c #5FB658",
"Y. c #6BAC4D",
"T. c #67A448",
"R. c #72A84E",
"E. c #63BB4B",
"W. c #63B448",
"Q. c #62AC52",
"!. c #6AA855",
"~. c #79A955",
"^. c #64B654",
"/. c #64BA55",
"(. c #6AB757",
"). c #76B65A",
"_. c #648F61",
"`. c #75A966",
"'. c #65BB64",
"]. c #74B663",
"[. c #68AC61",
"{. c #4EC149",
"}. c #53C24B",
"|. c #5CC24D",
" X c #56C448",
".X c #56C252",
"XX c #5DC254",
"oX c #5BC855",
"OX c #63C54D",
"+X c #64C353",
"@X c #63C159",
"#X c #66C856",
"$X c #73C15D",
"%X c #7EC67C",
"&X c #818539",
"*X c #958443",
"=X c #968A57",
"-X c #90934F",
";X c #A99A57",
":X c #B8895C",
">X c #8BB65D",
",X c #A6AA5B",
"<X c #B5A359",
"1X c #B7A759",
"2X c #8F996A",
"3X c #A89862",
"4X c #BA9E6E",
"5X c #82A165",
"6X c #BCA664",
"7X c #B3AD6E",
"8X c #DB8053",
"9X c #C1AC5D",
"0X c #FF8368",
"qX c #C3AD62",
"wX c #C9B768",
"eX c #CFBA6F",
"rX c #D8CC7B",
"tX c #D3C26A",
"yX c #E2CE77",
"uX c #BF888D",
"iX c #B7B493",
"pX c #D5AC91",
"aX c #E7BCAC",
"sX c #D3C78A",
"dX c #E1C888",
"fX c #E6DA8A",
"gX c #EBDC97",
"hX c #EEC995",
"jX c #E9E294",
"kX c #DCD3B3",
"lX c #F7D7A2",
"zX c #F7E8A2",
"xX c #FFE7B1",
/* pixels */
"$.q.Z.e.e.r.9.7.7.6.:.:.e.e.e.e.F.e.%.8.M.=.=.m.m.8.*.e.:.-.4.,.",
"7.G.|.Z.Z.Z.V.V.+XOXZ.t.{.}.B.0.n.S.G.#X#XZ.Z.XX+XP.m.}.{.Z.OXu.",
"l.G.F.S.S.F.G.I.V.Z.m.m.N.F.K.S.^.L.D.x.l.l.F.F.V.S.S.XXG.M.M.*.",
"l.m.S.S.D.S.F.XXm.G./.(.Y.g.R.~.~.~.~.~.).$X/.l.S.S.S.S.S.F..X;.",
"S.S.I./.G.S.B.B.S.(.).h.g s 1 1 2 2 s s f h.).^.I.P.S.S.S.F..Xp.",
"l.m.G.I.V.Z.B.m.@XY.f 1 D ` | } } 8X .H 2 a 2.Y.S.B.m.F.S.S.B.;.",
";.9.G.A.r.M.}.B.$Xh.U T  .O.O.X.! O.O.+.} T p R.@X{.n.F.F.V.XXF.",
"r.|.#XOXr.}.oXG.~.f H  .#...[ ......Q ..0X .y f.(.F.M.oX+XZ.G.r.",
"6.Z.A.y.m.r.m.(.h.< L +.o.[ X.X.X.X.....@. .G g R.I.P.r.8.A.A.4.",
"6.y.r.r.F.F.I.).f.I L E o.o.X.+.! +...@.[ K J 1 d.v.I.F.C.+X+Xq.",
"9.Z.m.m..XP.U.!.f + M E A { @.O.#.O.@.{ A E F O j.!.'.I.S.C.V.5.",
"9.XXF.F.J.K.H.a.g X n V B S R R E E W B Z K + , d.s.L.I.S.V.G.C.",
"8.XX.XJ.J.K.H.i g G n n K R B ] Z R Z E V n 3 h u i z.K.S.F.G.A.",
"0.F.B.B.J.I.Q.5 p U :X` M P C m m C K M M ` :Xg 6 <.v.I.F.F.m.4.",
"l.S.n.B.S.D.R.8 7 s dXhXY 3 +       + F ` lX6X7 4 2.T.G.Z.}.Z.=.",
"V.F.n.F.S.b.Y.2.5 d ;XgXlX4Xe e y , I pXxXdX*Xd 1.3.W.V.r.F.F.;.",
"=.N..XN.S.^.Y.g.3.1.,X7XfXzXgXgXzXjXzXzXdXwX,X5 T.C.m.F.G.m.N.;.",
"n..XXXF.S./.^.T.g.4 -X1XeXrXfXfXfXrXfXrXeX1X&X5 $XXXn.F.XXI.P.N.",
"l.G.+XG.G.G.E.Y.>X4 U <XqX9XwXtXyXwXeXqX6X;Xs 8 ).+XF.oX+XF.F.m.",
"9.V.C.V.r.Z.G.(.f.p 1 U ;X;X1XqXwX1X<X;X*Xh s d T.D.m.B.Z.m.r.=.",
"n.n.9.9.t.Z.G.Y.i 7X_ e _ =X=X;X;X3X=X3Xh , =X-Xd.Q.S.m.}.oX|.=.",
"n.B.V.V. X|.S.s.= sX_ o q z x x h x z v 0 @ 2XiX= <.L.F.M.M.Z.4.",
"9.G.+XE.A.G.D.s.* v 9 9 0 0 b q k b j 0 0 . - d.; s.^.+XG.q.C.w.",
"0.E.+Xy.5.l.G.Q.`.i . c k @ l # r 0 r 0 c k . d.].^.z.c.D.C.E.W.",
"7.7.r.m.m.F.F.S.v.T.j.. _ ( ( ~ ^ N N ( l o 5X!.c.F.F.F.G.V.7.-.",
"y.V.Z.F.F.P.}.F.0.Q.~.< t / ~ ' ) ) ^ / t q `.z.8.M.F.Z.F.|.A.7.",
"w.C.G.G.G.I.F.B.M.I.).d., aXuX$ X X pXpX9 5X]..Xt.{.Z.V.C.E.A.w.",
"5.C.G.S.c.D.S.e.M.e.v.g.u kXiX@ z q kXiXw k.b.n.}.{.V.x.C.D.C.q.",
"6.Z.|.S.S.I.I.n..XoXc.Q.a.: : _.`.`.: * `.[.@XM.|.Z.V.D.I.F.Z.Z.",
"e.}.#XG.G.+X+XF..XXXI.L.H.& > '.'./.% % %XH.K.e.OXA.C.G.XXF.M.M.",
"6.m.A.A.V.V.Z.F.r.8.G.V.S.9.I.n.}.r.^.v.z.c.Z.|.u.u.C.V.B.B.e.*.",
"=.=.5.7.5.4.6.r.9.7.q.5.6.=.*.t.-.t.9.D.&.V.6.-.>.i.7.=.;.{.e.$."
};
