/* XPM */
static char *_20256be79774e17b1f431be466f24d6LGKFE6nEPrSkDTic[] = {
/* columns rows colors chars-per-pixel */
"32 32 236 2 ",
"   c #3E0A00",
".  c #5F1411",
"X  c #4E3612",
"o  c #672E26",
"O  c #375E1D",
"+  c #2F5E30",
"@  c #365325",
"#  c #356736",
"$  c #327726",
"%  c #145406",
"&  c #464919",
"*  c #54561A",
"=  c #674618",
"-  c #6B5618",
";  c #73511C",
":  c #536F1A",
">  c #6B5625",
",  c #785824",
"<  c #795439",
"1  c #69522B",
"2  c #4A6929",
"3  c #557822",
"4  c #597833",
"5  c #4E6F36",
"6  c #696A29",
"7  c #73602B",
"8  c #69762C",
"9  c #6C7832",
"0  c #757B35",
"q  c #726834",
"w  c #5D5349",
"e  c #7A514C",
"r  c #4A6D47",
"t  c #6D734E",
"y  c #7D7766",
"u  c #727D71",
"i  c #811B19",
"p  c #89341A",
"a  c #9A3626",
"s  c #952A22",
"d  c #AB2B28",
"f  c #A9372F",
"g  c #BA3739",
"h  c #AE3332",
"j  c #C52B2B",
"k  c #C73A36",
"l  c #C63637",
"z  c #C4332E",
"x  c #8C4426",
"c  c #99482E",
"v  c #955730",
"b  c #8D4E33",
"n  c #A75136",
"m  c #8E7438",
"M  c #CC4437",
"N  c #D54439",
"B  c #C8563E",
"V  c #F2593E",
"C  c #E4633A",
"Z  c #9C3644",
"A  c #AF3E48",
"S  c #CA3E41",
"D  c #845645",
"F  c #974C57",
"G  c #925448",
"H  c #B14746",
"J  c #B04652",
"K  c #A7765D",
"L  c #AF6D48",
"P  c #90766F",
"I  c #A86874",
"U  c #937158",
"Y  c #CB4442",
"T  c #F05A45",
"R  c #D6754F",
"E  c #D56B52",
"W  c #CF734E",
"Q  c #FD6243",
"!  c #F86945",
"~  c #FC724C",
"^  c #FB7045",
"/  c #FE6E53",
"(  c #F66854",
")  c #FA7559",
"_  c #C06270",
"`  c #D96C71",
"'  c #FC7C65",
"]  c #E37775",
"[  c #349D1D",
"{  c #2F9317",
"}  c #3C9D2A",
"|  c #3AA524",
" . c #3CA42B",
".. c #3FAB2D",
"X. c #35A62B",
"o. c #3DAB33",
"O. c #39A536",
"+. c #3BB32E",
"@. c #5A8A34",
"#. c #478C2E",
"$. c #638A32",
"%. c #758938",
"&. c #43AC2A",
"*. c #46A52D",
"=. c #44AC34",
"-. c #4BAD34",
";. c #46AD3B",
":. c #4AAC3B",
">. c #45A537",
",. c #53AC3A",
"<. c #43B335",
"1. c #4DB134",
"2. c #45B23D",
"3. c #4CB33C",
"4. c #4CBB3B",
"5. c #46BA39",
"6. c #52B43D",
"7. c #52BA3E",
"8. c #59B43D",
"9. c #4DB42D",
"0. c #51C03E",
"q. c #4EC33E",
"w. c #5E8643",
"e. c #4C964E",
"r. c #58994C",
"t. c #498259",
"y. c #698947",
"u. c #679847",
"i. c #6F9750",
"p. c #728C4E",
"a. c #47AC41",
"s. c #4CAF44",
"d. c #4BA346",
"f. c #54AE45",
"g. c #5AAC48",
"h. c #4CB443",
"j. c #4DBA44",
"k. c #4EB54A",
"l. c #4DB84B",
"z. c #45B244",
"x. c #52B544",
"c. c #59B444",
"v. c #53BB45",
"b. c #5ABC44",
"n. c #54B54A",
"m. c #5AB44B",
"M. c #54BC4A",
"N. c #5ABB4C",
"B. c #59AC50",
"V. c #5DA75C",
"C. c #57B452",
"Z. c #5DB652",
"A. c #54BB53",
"S. c #5CBC52",
"D. c #5BBB5B",
"F. c #5AB65A",
"G. c #4FBA50",
"H. c #69A748",
"J. c #66B94D",
"K. c #6BA75B",
"L. c #75AB59",
"P. c #77A753",
"I. c #63B253",
"U. c #64BB55",
"Y. c #68BA59",
"T. c #66B75A",
"R. c #79B65B",
"E. c #7B8F6C",
"W. c #5DA261",
"Q. c #68BC63",
"!. c #77B966",
"~. c #6FB97B",
"^. c #71B970",
"/. c #53C147",
"(. c #5AC345",
"). c #55C14B",
"_. c #5BC34D",
"`. c #59CA47",
"'. c #5CC252",
"]. c #5DCA53",
"[. c #5CC859",
"{. c #4FC147",
"}. c #63C64C",
"|. c #64C453",
" X c #64C55A",
".X c #69C958",
"XX c #71C25B",
"oX c #69C464",
"OX c #73C364",
"+X c #7AC663",
"@X c #99873C",
"#X c #979B4D",
"$X c #8E8C4C",
"%X c #A99747",
"&X c #B48452",
"*X c #A79156",
"=X c #87AB57",
"-X c #B8A75F",
";X c #ACA459",
":X c #949172",
">X c #B28568",
",X c #AC8A74",
"<X c #9AA269",
"1X c #AEAB6A",
"2X c #C0AA5F",
"3X c #C3936D",
"4X c #FF826B",
"5X c #C8AB66",
"6X c #CAB669",
"7X c #CCBD7C",
"8X c #E3B77A",
"9X c #D6C67A",
"0X c #998B82",
"qX c #B28986",
"wX c #A89A88",
"eX c #93A798",
"rX c #D28F8A",
"tX c #EE848E",
"yX c #DEB487",
"uX c #E4B790",
"iX c #D7B8BB",
"pX c #F0AFA9",
"aX c #B6D5B6",
"sX c #DECE81",
"dX c #DCD98C",
"fX c #E4D689",
"gX c #EED28F",
"hX c #F9E49D",
"jX c #DCC7B6",
"kX c #FFCCB7",
"lX c #EDE1B9",
"zX c #F4D0CB",
"xX c #FFFBDF",
"cX c #F2DEE0",
"vX c #F7FDF2",
"bX c #F2F6E6",
/* pixels */
"{ 1.x.;.z.z.2.;.=.x. .[ 5.5.X.<.4...&.9.1.&.o.h.h.;. .1.&.| <.X.",
"-._._.x.l.l.h.l..X_.7.x._._.x.h.x.6.b.}.}.7.j.].[.M.6.b.b.7.].{.",
"3.v.x.x.n.n.M.S.l.;.n.S.f.f.Z.f.U.m.f.c.x.;.2.M.h.v.c.J.b.x.j.X.",
"3.h.h.h.n.n.N.S.a.S.OXR.u.u.P.P.=XP.P.L.!.OX'.2.h.v.x.m.m.n.M.O.",
"M.M.M.).M.n.n.n.S.OXP.9 > , ; ; = ; 7 6 y.R.XXv.v.v.x.N.m.N.'.;.",
";.h.M.).x.x.M.n.g.u.6 , L R R R R R L v > 8 u.J.x.x.h.S.n.c.x.*.",
"O.2.).v.2.j.'.m.=X0 v W ) / / ~ ~ / ) E n , 0 P.XXM.z.M.M.n.|.b.",
"h._..X_.j.). XI.i.- n ' / V Q Q Q Q / ' E x > p.!.Z.l.[.].x.b.1.",
"3.v.-.x.).z.f.H.* v B ( / Q ! ^ ~ ! V 4XB a K t y.^.D.h.j./.7...",
"=.v.,.c._.n.B.i.> c h N ( ) ~ C C ! ) ( h ] rXzXE.5 T.A.2.).v.o.",
"..b.c.m.A.A.F.i.; n z j k T ( ( ) ) ( k d tXF iXbX+ V.C.:.].M.o.",
".._.J.m.G.A.F.y.= n Y l k k M N M N M k h _ I cXvX# ^.oXn.;.h.h.",
"=._.N.n.l.A.Q.u.= x a d g Y l l j z l g Z I iXvXaX# e.d.S.x.'.M.",
"=.x.n.n.l.D.Q.u.q m n a a f g S l g A J rXzXbXaXr e.oXZ.|.3.x.=.",
"2.n.n.N.C.U.T.@.$X7XsX&Xv c a s f A Z F qXwXt # e.Q.Y.x.S.M.4.X.",
"x.M.n.S.Z.I.H.3 #XdXhX5X*X3XL p p c . D ,Xy 5 K.I.U.x.h.x.v.4.q.",
"=.3.N.'.x.g.H.3 1XfXsX%X@X%X5X8X&XyX  o xX1X4 H.J.c.x._.v.<.5.+.",
"*.6.b.M.h.I.L.3 #XfX9X6X%X%XgXhX&XuXb U lX<X%.H.J.b.3.).v.v.`.4.",
"3._.|.'.A.OXR.3 #X9X2X6X@Xm fXgXL rXrXqXwXp.P.J.|.(.h.M.(.(.(.&.",
";.v.M.n.k.Z.H.: 8 ;X-X6X@X- -XsX< D P P w y.K.m.v.v.x.b.b.b.7.[ ",
";.h.s.n.n.n.g.#.: %.*X-X$X- , *X:Xw u u r ~.Q.a.;.h.x.c.c.8.b.*.",
":.x.n.S.'.S.U.H.$.: 6 0 m 7 , >XjXy eXeXt.~.D.l.h.v.m.J.m.c.b.1.",
">.M.n.n.k.h.S.g.H.$.3 9 6 > >XkXpXe 0X:X# W.d.'.|.N.c.U.N.x.M.2.",
";. X Xn.s.h.S.c.+XR.@.y.* X >XpXpXo e t @ K.B. X.Xc.>.f.m.n.[.).",
"a.s.s.x.n.M.M.n.:.,.T.L.2 & K rX` f b < 4 K.I.h.3.v.N.N.S.n.a.O.",
"h.h.n.N.N.S.N.N.N.m.Z.I.w.& X G i H G 1 y.!.U.3.=.7.N.n.N.S.M.;.",
"z.j.M.N.N.N.N.v.x.'. XU.!.w.1 ,X3X>Xq 4 L.Y.x./.4.v.b.x.x.N.b.:.",
"o.h.M.x.x.v.v.:.>.x.h.;.Z.r.t :XlX$X2 L.Y.>.x./.(.v.x.6.x.v.6.-.",
"o.j._.x.3.b.b.3.|.}.h.h.D.Q.u.O 2 4 u.OXn.;.'.x.}.7.6.v.N.v.7.0.",
"5.).].M.v._._.v.b.b.v._.M.oXOX$ % r.T.n.N.M.x.b.|.b.x.b.'.M.4.4.",
"=.4.v.v.j.j.v.v.-.,.b.v.O.k.oXC.B.Y.n.;.M.v.=.v.b.b.x.h.l.M.5.| ",
"| | ..<.o.X.o.3.6.*.,.=.O.O.O.z.d.>.N.v. .=.;. .} :.;.X.O.M.4.[ "
};
