/* XPM */
static char *_d20386b714442bed3f44f5ee4644401bBOhXr3qZKIiOhj8[] = {
/* columns rows colors chars-per-pixel */
"32 32 51 1 ",
"  c #2E9222",
". c #339727",
"X c #389C2C",
"o c #3A9E2E",
"O c #3B9F2F",
"+ c #3CA030",
"@ c #3DA131",
"# c #3EA232",
"$ c #3FA333",
"% c #40A434",
"& c #41A535",
"* c #42A636",
"= c #43A737",
"- c #44A838",
"; c #45A939",
": c #46AA3A",
"> c #47AB3B",
", c #48AC3C",
"< c #49AD3D",
"1 c #4AAE3E",
"2 c #4BAF3F",
"3 c #4CB040",
"4 c #4DB141",
"5 c #4EB242",
"6 c #4FB343",
"7 c #50B444",
"8 c #51B545",
"9 c #52B646",
"0 c #53B747",
"q c #54B848",
"w c #55B949",
"e c #56BA4A",
"r c #57BB4B",
"t c #58BC4C",
"y c #59BD4D",
"u c #5ABE4E",
"i c #5BBF4F",
"p c #5CC050",
"a c #5DC151",
"s c #5EC252",
"d c #5FC353",
"f c #60C454",
"g c #61C555",
"h c #62C656",
"j c #63C757",
"k c #64C858",
"l c #65C959",
"z c #66CA5A",
"x c #67CB5B",
"c c #69CD5D",
"v c #6ACE5E",
/* pixels */
" 30,,3,,33%$33;,0;%,,$%30;$,,$,$",
",pp00030fpw0pp0030wpppyyfy0yywfy",
"3ww0wwwp3000yw000w0,,wyw0w0pyw0O",
"3330wwwp0ypyw00w0ppwwpy30w300wy%",
"wwyywwwwyppp00wp0wyypffpwy000wp,",
",3yy00w0w33330w0w033330www3w000$",
"%,yw3wpwfw0wwyy3yyypp033fy3wwwfw",
"0pcf0yfwfwyppff0pyyyywypfw0ffwy3",
",330y00p30w0030w0www000w30y03ww$",
";330yw0p3wpy030p3yy00yyw00ww0yy,",
",ww0yw0wwypywwwy0yywwyyyywyywww,",
"3ppwww33pw0wpfy0p00pp00pp00w0wy0",
",yywyy00pw30ypy0p03yy33yp00030w0",
";0w0yywy0wyy00wywww0www000wyw00%",
",000y00y3ypy03wp0yw0wppw,3yywyw%",
"0w0ww3,wwyyywwwy000wpffpyyy3,wy,",
";,ww0yy,00330w03y3,03;,yyw0pw;3;",
",0yw,0p0fywwyyw3pwyfkywwfw3yywf0",
"3pckwyffpwwwpppwpywwyyyyfy0yppp;",
";0yy03wy300wwyyyww03,3wwww0ywwwO",
"3330000p0wyw330w3wyyyww0,03w00y;",
"0wwyppyp0ypyw0wywwwypyww3wwpw0y,",
"%wy0ww33yw0wpppyp030w0wpfy0py0y,",
";fk03000ky30pfw,w0wkfw0pk0%30wfy",
",,330www,3ww000wppw,3ww03wyyw0,$",
"30wwyyyywyfpw00w000wyyyw,0w0wpw,",
"30wwwyww0wyyw0wy033wywwy3yw30yw,",
"%0w00w0,33330ww0w03ww33wyy030w0,",
"%wp00yy3fw30yy0,ywwyy03wf03wywww",
",pfywpfwky0wpfpwyyyyywypky0ypy00",
";0ww00wy0000wwyy30w030wwyy030w3$",
"O$%,;$;3%,3;$O%,$,03,,,%O,;$;w3."
};
