/* XPM */
static char *a08600c1af6a4ec7aab9db5719d9f255HtgjMeCCmpwQbmO0[] = {
/* columns rows colors chars-per-pixel */
"32 32 230 2 ",
"   c #0B2B00",
".  c #033C00",
"X  c #173708",
"o  c #223B1A",
"O  c #2B361B",
"+  c #303B1B",
"@  c #353A24",
"#  c #084300",
"$  c #144E0D",
"%  c #1A450B",
"&  c #0E540B",
"*  c #13560F",
"=  c #1A4715",
"-  c #1C5214",
";  c #21560E",
":  c #244D1C",
">  c #2A4216",
",  c #255117",
"<  c #24551B",
"1  c #255B18",
"2  c #345C1E",
"3  c #36571C",
"4  c #2D691D",
"5  c #2A6218",
"6  c #35641E",
"7  c #326B1B",
"8  c #3B731C",
"9  c #37711C",
"0  c #294A24",
"q  c #3A4527",
"w  c #2C5D22",
"e  c #295725",
"r  c #345E24",
"t  c #335731",
"y  c #316323",
"u  c #346C23",
"i  c #396C23",
"p  c #34632A",
"a  c #3B6A2C",
"s  c #396527",
"d  c #3D7225",
"f  c #3C7B25",
"g  c #3D7929",
"h  c #3B7326",
"j  c #3D6D31",
"k  c #427A1F",
"l  c #424C2A",
"z  c #414D27",
"x  c #425B2B",
"c  c #425623",
"v  c #495837",
"b  c #406E2D",
"n  c #437B2A",
"m  c #45782B",
"M  c #486936",
"N  c #56613C",
"B  c #546936",
"V  c #437532",
"C  c #447A35",
"Z  c #4B7837",
"A  c #567539",
"S  c #455C40",
"D  c #2D941E",
"F  c #369C28",
"G  c #37A329",
"H  c #3CA32B",
"J  c #37A627",
"K  c #3CA333",
"L  c #3DAA33",
"P  c #3FAE38",
"I  c #3FB334",
"U  c #448625",
"Y  c #4A822F",
"T  c #468A29",
"R  c #4A8B2C",
"E  c #45842B",
"W  c #508E2B",
"Q  c #4B992B",
"!  c #559C2D",
"~  c #478034",
"^  c #4D8B33",
"/  c #4E8E39",
"(  c #4A8637",
")  c #55893B",
"_  c #4A9A37",
"`  c #539433",
"'  c #529B34",
"]  c #54933C",
"[  c #5A913F",
"{  c #569C3B",
"}  c #5C9B3A",
"|  c #629E3F",
" . c #49A62D",
".. c #42A535",
"X. c #42AB35",
"o. c #4CAC37",
"O. c #43AB3B",
"+. c #4BAD3D",
"@. c #5CA335",
"#. c #53A43B",
"$. c #5DA43C",
"%. c #53AC3D",
"&. c #54A134",
"*. c #46B33B",
"=. c #4BB33D",
"-. c #4DBB3F",
";. c #4AB134",
":. c #53B33D",
">. c #55B83E",
",. c #62A22E",
"<. c #62A234",
"1. c #6AAB3E",
"2. c #65A73A",
"3. c #62B73E",
"4. c #6EB53D",
"5. c #72B43B",
"6. c #79BA3C",
"7. c #73B436",
"8. c #7DC03F",
"9. c #4D8943",
"0. c #5C8641",
"q. c #528846",
"w. c #4C9342",
"e. c #479546",
"r. c #5B9444",
"t. c #5A974E",
"y. c #549C4B",
"u. c #579843",
"i. c #619643",
"p. c #67964E",
"a. c #639C57",
"s. c #4BAE41",
"d. c #48A742",
"f. c #53A442",
"g. c #5EA243",
"h. c #53AE45",
"j. c #5CAC43",
"k. c #52A44A",
"l. c #5EAC4D",
"z. c #57AA4A",
"x. c #4CB442",
"c. c #4EBA43",
"v. c #4FB649",
"b. c #4DBC49",
"n. c #40B540",
"m. c #53B444",
"M. c #5BB345",
"N. c #54BA45",
"B. c #59BC44",
"V. c #54B649",
"C. c #5BB54A",
"Z. c #55BB4A",
"A. c #5BBB4C",
"S. c #5BA757",
"D. c #5DBD52",
"F. c #58B353",
"G. c #64A446",
"H. c #62AB44",
"J. c #6BAB43",
"K. c #65AC4A",
"L. c #6BAB4C",
"P. c #6BA646",
"I. c #62B542",
"U. c #6CB445",
"Y. c #62B944",
"T. c #62B54C",
"R. c #6DB14A",
"E. c #63BB4D",
"W. c #6BBC4E",
"Q. c #6ABB42",
"!. c #72B043",
"~. c #75BC44",
"^. c #7BBC45",
"/. c #73B34B",
"(. c #76BB4B",
"). c #79B74A",
"_. c #6BA952",
"`. c #63AA56",
"'. c #73A95A",
"]. c #63B353",
"[. c #6BB553",
"{. c #64BC52",
"}. c #6ABA53",
"|. c #64B25A",
" X c #68BB5A",
".X c #71B154",
"XX c #7BBC53",
"oX c #76B759",
"OX c #67BC62",
"+X c #74B367",
"@X c #75BB66",
"#X c #6BA662",
"$X c #54C149",
"%X c #59C14B",
"&X c #59C348",
"*X c #5CC252",
"=X c #5DC953",
"-X c #65C14D",
";X c #6CC44C",
":X c #72C54D",
">X c #7CC34D",
",X c #7BC64B",
"<X c #61C354",
"1X c #62CA56",
"2X c #67CF5C",
"3X c #6ACB59",
"4X c #6DC553",
"5X c #73C453",
"6X c #7DC353",
"7X c #7FC35A",
"8X c #78C957",
"9X c #80BE41",
"0X c #82C349",
"qX c #87CC4D",
"wX c #90CE4F",
"eX c #85C453",
"rX c #8DCD54",
"tX c #82C45B",
"yX c #8CCF5A",
"uX c #85CD55",
"iX c #8ED055",
"pX c #82D45D",
"aX c #8EDA5D",
"sX c #94D55A",
"dX c #94D663",
"fX c #98DC63",
"gX c #82DB65",
"hX c #8FE269",
"jX c #93E36A",
"kX c #A6E66D",
/* pixels */
"D =.x.X.O.O.O.O.v.x.K K s.s.+.N.%. . .o.:.H F m.x.X.H *.L G X.H ",
"X.%X%Xx.v.v.v.V.*X*XV.Z.*XD.D.3XgX;XY.-X-XB.N.Z.<XA.x.%XN.c.=X$X",
"=.N.Z.N.Z.Z.Z.<XV.V.m.V.A.M.A.4XhX:X3.Y.>.B.A.+.m.Z.N.=X%Xc.-.G ",
"*.=.x.N.Z.Z.A.*XV.C.A.E.E.E.4XpXhX,XQ.3.I.E.E.%.:.A.m.N.N.N.N.X.",
"c.c.Z.%XZ.V.m.m.C.C.4X5X5X5XpXjXaXaX,X~.:X:XY.C.M.-XV.N.B.N.%X*.",
"*.x.Z.Z.m.m.m.%.%.M.5X8X5X,XpXfXaXaXqX,XuX,XI.M.%.A.m.N.%Xx.=.L ",
"L *.Z.Z.s.C.{.C.Q Q U.6X~.4.~.~.qX8.7.~.,X(.2.! I.E.%.V.%XZ.%X*X",
"c.*X2X<XV.{.8XW.&.@.6XdXuX>X^.6.sX6.7.0XiXyX>X@.j.T.M.{.3XZ.N.N.",
"L *.Z.Z.C.C.E.5XU.U.1.>XfXrX^.rXiXwX9XrXsX).1.2.W.W.}.C.+.Z.Z.K ",
"x.x.x.m.C.T.j.' /.J.! !.dXrX9XfXkXiX^.sXdX1.<./.$.$.T.E.V.*X*X=.",
"x.c.N.V.E.{.H.' 7XXX1.!.eX5.2.yXkX0X,.).0X2.J.XXH.$.K.T.h.V.Z...",
"L Z.1XA.M.M.j.{ L.XXtXXX!.<.<.).>X).,.<.J./.XXR./.g.T.}.C.C.Z.+.",
"L N.<XN.#.#._ U T 2./.P.2.(.6X(.@.6X6X/.J.J./.} R T ' j.C.A.D.V.",
"=.x.m.m.M.M.{ T ` } } R } tXtX2.Q U.7XXX} W | | U R { l.C.C.m...",
"c.x.x.V.E.}.K.g.G..X} U g.R.$.' &.' @.J.` U } L.G.[.}.[.{.{.m...",
"=.N.A.A.j.f.g.K.} oXu.^ G.{ U H.oX' U $.g.` G._.u.L.H.{ %.A.V.=.",
"K m.A.h. X].f f 7 ^ ^ g..X] k P.oX^ R G..X] f u.h E U H.W.:.N.X.",
"o.=.3X{.{ / Y Y d g g ] ] E 8 m i.Y 9 8 ] / u ~ u n T #.M.:.B.N.",
":.:.<X{.f./ n d ) i h ( n / i.) d [ [ Y [ ) y V V d R ' %.M.=.=.",
":.B.M.C.[.u.7 ; Z 6 s C 4 ~ [ n 5 ( r.n b d y j C ; n { j.E.+.L ",
";.B.m.C. Xy.u % 2 r a C 6 i i 5 i 7 d 6 6 b p p w . g ].C.<Xc.P ",
"=.*.x.*XD.|.w.# < p s a y y u V q.i i s s a y w $ $ w.@XC.V.b.*.",
"*.c.N.*XF.OX|.5 $ w < < < < < j q.p w , , < - 1 & ( `. Xh.s.b.n.",
"H 2X1Xv.s.F.OXy.# - - w r e % - e : : : p p $ * & S.|.f.h.Z.=Xb.",
"+.+.+.m.V.V.F.|.y.t.9., = : t t 0 t 0 0 % < 9.y.k.F.].].C.A.x.K ",
"m.m.m.A.Z.A.D.].z.+Xa.%   > v 0 o S v o X j +X|.k.C.].C.T.{.V.O.",
"v.m.V.A.A.C.M.C.]..Xp.r > + q O O @ @ + > r r.l.C.A.C.C.C.A.V.O.",
"O.x.N.m.m.>.>.%.T.{ m 2 c q l q v q @ v x 2 E l.A.V.m.m.C.C.m.=.",
"P c.%XN.>.B.B.:.{.[._.) A B v z l v N N B 0.g.T.A.m.=.N.A.A.Z.Z.",
"*.$X=X&X&X&X&XB.V.E.@X'.0.3 3 x M M x r A '.[.M.1X%XZ.A.{.A.m.=.",
"I *.-.B.>.:.-.$Xc...h.l.w.4 C #X+Xq.a y ) _.h.Z.$X$XN.m.V.C.+.F ",
"J J H ;. .J L -.c.O.s.d.k.w.y.S.e.e.a.t.`.l._ X.G L O...+.A.x.F "
};
